<svg version="1.1" id="Layer_1" xmlns="http://www.w3.org/2000/svg" xmlns:xlink="http://www.w3.org/1999/xlink" x="0px" y="0px"
	 width="100%" viewBox="0 0 308 467" enable-background="new 0 0 308 467" xml:space="preserve">
<path fill="#FEFEFE" opacity="1.000000" stroke="none" 
	d="
M135.000000,468.000000 
	C90.000008,468.000000 45.500015,468.000000 1.000018,468.000000 
	C1.000012,312.333374 1.000012,156.666733 1.000006,1.000081 
	C103.666618,1.000054 206.333237,1.000054 308.999878,1.000027 
	C308.999939,156.666580 308.999939,312.333160 308.999969,467.999878 
	C251.166672,468.000000 193.333328,468.000000 135.000000,468.000000 
M59.582645,24.980492 
	C51.197575,21.611357 42.812508,18.242222 33.982807,14.694434 
	C33.982807,46.472168 33.940517,77.462196 34.120735,108.450935 
	C34.128857,109.847343 35.861160,111.881737 37.283104,112.518234 
	C47.591049,117.132355 57.989758,121.551613 68.448730,125.814194 
	C70.722351,126.740814 73.355652,126.784897 76.407516,127.342125 
	C76.407516,109.644005 76.407516,92.928001 76.407516,75.891785 
	C77.523994,76.167282 78.172386,76.244362 78.754738,76.482758 
	C131.654739,98.138786 184.533691,119.846489 237.482697,141.381973 
	C240.841019,142.747879 240.804474,144.841400 240.802750,147.585922 
	C240.770660,198.749008 240.779343,249.912094 240.779480,301.075195 
	C240.779495,309.568146 240.779480,318.061096 240.779480,326.717133 
	C229.072601,332.132660 217.433563,337.448853 205.881790,342.948364 
	C204.471634,343.619690 202.547150,345.256165 202.523163,346.477966 
	C202.276077,359.064697 202.371506,371.658142 202.371506,384.268585 
	C203.283691,384.268585 203.638931,384.368683 203.900528,384.254395 
	C227.652176,373.879883 251.413773,363.527405 275.091949,352.987579 
	C276.306702,352.446838 277.481750,350.304077 277.513702,348.881073 
	C277.651794,342.730743 277.314026,336.571259 277.227936,330.414032 
	C276.878693,305.431763 276.274475,280.448883 276.290039,255.466599 
	C276.317535,211.322006 276.645142,167.176773 277.116302,123.034698 
	C277.160828,118.863983 276.041260,116.519562 272.431396,114.888062 
	C260.773346,109.619186 249.292694,103.933487 237.497543,98.996498 
	C178.481049,74.294540 119.386078,49.780029 59.582645,24.980492 
M68.013481,437.538727 
	C106.763496,421.520905 145.497910,405.464996 184.295746,389.563812 
	C187.128632,388.402740 187.974426,386.954987 187.966476,384.049835 
	C187.876099,351.059235 187.868088,318.068237 187.951233,285.077637 
	C187.958481,282.206665 187.232666,280.668976 184.402802,279.472168 
	C137.198929,259.508362 90.051521,239.411057 42.882195,219.365509 
	C41.467857,218.764450 39.952263,218.401672 38.216591,217.841553 
	C38.216591,295.431305 38.216591,372.276062 38.216591,449.705017 
	C48.263439,445.616760 57.790958,441.739838 68.013481,437.538727 
M187.913132,217.500000 
	C187.912003,209.501297 187.666351,201.491989 188.012924,193.508392 
	C188.186188,189.517090 186.805252,187.635712 183.186981,186.115234 
	C139.620834,167.808060 96.122185,149.340286 52.596916,130.935730 
	C46.991947,128.565689 41.336124,126.315903 35.077843,123.754166 
	C35.077843,150.122391 35.040516,175.599945 35.197903,201.076294 
	C35.205101,202.241196 36.729630,203.918823 37.948124,204.466965 
	C44.471577,207.401566 51.111221,210.080307 57.732513,212.794281 
	C63.211769,215.040131 68.721291,217.212128 75.227386,219.822006 
	C75.227386,206.248474 75.227386,193.734985 75.227386,180.899963 
	C76.642883,181.144974 77.318779,181.134384 77.885017,181.378357 
	C100.811646,191.255630 123.750519,201.105698 146.588379,211.184586 
	C147.884842,211.756714 149.022827,214.205902 149.076019,215.819656 
	C149.333923,223.643280 149.212357,231.479996 149.194855,239.311996 
	C149.163910,253.159149 149.134781,253.209290 161.800323,258.236877 
	C170.247879,261.590118 178.762115,264.775360 187.913010,268.291901 
	C187.913010,251.099640 187.913010,234.799820 187.913132,217.500000 
z"/>
<path fill="#0E5479" opacity="1.000000" stroke="none" 
	d="
M59.950676,25.090054 
	C119.386078,49.780029 178.481049,74.294540 237.497543,98.996498 
	C249.292694,103.933487 260.773346,109.619186 272.431396,114.888062 
	C276.041260,116.519562 277.160828,118.863983 277.116302,123.034698 
	C276.645142,167.176773 276.317535,211.322006 276.290039,255.466599 
	C276.274475,280.448883 276.878693,305.431763 277.227936,330.414032 
	C277.314026,336.571259 277.651794,342.730743 277.513702,348.881073 
	C277.481750,350.304077 276.306702,352.446838 275.091949,352.987579 
	C251.413773,363.527405 227.652176,373.879883 203.900528,384.254395 
	C203.638931,384.368683 203.283691,384.268585 202.371506,384.268585 
	C202.371506,371.658142 202.276077,359.064697 202.523163,346.477966 
	C202.547150,345.256165 204.471634,343.619690 205.881790,342.948364 
	C217.433563,337.448853 229.072601,332.132660 240.779480,326.717133 
	C240.779480,318.061096 240.779495,309.568146 240.779480,301.075195 
	C240.779343,249.912094 240.770660,198.749008 240.802750,147.585922 
	C240.804474,144.841400 240.841019,142.747879 237.482697,141.381973 
	C184.533691,119.846489 131.654739,98.138786 78.754738,76.482758 
	C78.172386,76.244362 77.523994,76.167282 76.407516,75.891785 
	C76.407516,92.928001 76.407516,109.644005 76.407516,127.342125 
	C73.355652,126.784897 70.722351,126.740814 68.448730,125.814194 
	C57.989758,121.551613 47.591049,117.132355 37.283104,112.518234 
	C35.861160,111.881737 34.128857,109.847343 34.120735,108.450935 
	C33.940517,77.462196 33.982807,46.472168 33.982807,14.694434 
	C42.812508,18.242222 51.197575,21.611357 59.950676,25.090054 
z"/>
<path fill="#D0A86D" opacity="1.000000" stroke="none" 
	d="
M67.665985,437.700806 
	C57.790958,441.739838 48.263439,445.616760 38.216591,449.705017 
	C38.216591,372.276062 38.216591,295.431305 38.216591,217.841553 
	C39.952263,218.401672 41.467857,218.764450 42.882195,219.365509 
	C90.051521,239.411057 137.198929,259.508362 184.402802,279.472168 
	C187.232666,280.668976 187.958481,282.206665 187.951233,285.077637 
	C187.868088,318.068237 187.876099,351.059235 187.966476,384.049835 
	C187.974426,386.954987 187.128632,388.402740 184.295746,389.563812 
	C145.497910,405.464996 106.763496,421.520905 67.665985,437.700806 
M149.853958,330.500000 
	C149.853928,323.673462 149.585953,316.832428 149.955170,310.025909 
	C150.173935,305.992706 148.651840,304.153412 145.071411,302.630951 
	C129.001770,295.797974 113.059624,288.665619 97.056480,281.675629 
	C90.274696,278.713440 83.455978,275.835846 76.358398,272.793060 
	C76.358398,312.951355 76.358398,352.303650 76.358398,391.618866 
	C77.054298,391.710999 77.429459,391.884186 77.690704,391.777710 
	C100.782349,382.369934 123.889610,372.998840 146.889648,363.371704 
	C148.311386,362.776611 149.667191,360.177338 149.720566,358.468903 
	C150.001328,349.486664 149.853027,340.490997 149.853958,330.500000 
z"/>
<path fill="#D0A96E" opacity="1.000000" stroke="none" 
	d="
M187.913071,218.000000 
	C187.913010,234.799820 187.913010,251.099640 187.913010,268.291901 
	C178.762115,264.775360 170.247879,261.590118 161.800323,258.236877 
	C149.134781,253.209290 149.163910,253.159149 149.194855,239.311996 
	C149.212357,231.479996 149.333923,223.643280 149.076019,215.819656 
	C149.022827,214.205902 147.884842,211.756714 146.588379,211.184586 
	C123.750519,201.105698 100.811646,191.255630 77.885017,181.378357 
	C77.318779,181.134384 76.642883,181.144974 75.227386,180.899963 
	C75.227386,193.734985 75.227386,206.248474 75.227386,219.822006 
	C68.721291,217.212128 63.211769,215.040131 57.732513,212.794281 
	C51.111221,210.080307 44.471577,207.401566 37.948124,204.466965 
	C36.729630,203.918823 35.205101,202.241196 35.197903,201.076294 
	C35.040516,175.599945 35.077843,150.122391 35.077843,123.754166 
	C41.336124,126.315903 46.991947,128.565689 52.596916,130.935730 
	C96.122185,149.340286 139.620834,167.808060 183.186981,186.115234 
	C186.805252,187.635712 188.186188,189.517090 188.012924,193.508392 
	C187.666351,201.491989 187.912003,209.501297 187.913071,218.000000 
z"/>
<path fill="#FFFEFD" opacity="1.000000" stroke="none" 
	d="
M149.853836,331.000000 
	C149.853027,340.490997 150.001328,349.486664 149.720566,358.468903 
	C149.667191,360.177338 148.311386,362.776611 146.889648,363.371704 
	C123.889610,372.998840 100.782349,382.369934 77.690704,391.777710 
	C77.429459,391.884186 77.054298,391.710999 76.358398,391.618866 
	C76.358398,352.303650 76.358398,312.951355 76.358398,272.793060 
	C83.455978,275.835846 90.274696,278.713440 97.056480,281.675629 
	C113.059624,288.665619 129.001770,295.797974 145.071411,302.630951 
	C148.651840,304.153412 150.173935,305.992706 149.955170,310.025909 
	C149.585953,316.832428 149.853928,323.673462 149.853836,331.000000 
z"/>
</svg>